<svg width="100" height="100" viewBox="0 0 100 100" fill="none" xmlns="http://www.w3.org/2000/svg">
<g opacity="0.5" clip-path="url(#clip0_101_227)">
<path d="M93.4831 12.9136C68.1054 21.0282 53.8042 9.17801 32.649 8.02489C31.7292 7.97843 30.9442 8.67947 30.894 9.59843C30.87 10.0398 31.0223 10.4726 31.3174 10.8017C31.6124 11.1308 32.0261 11.3293 32.4675 11.3534C52.8773 12.4657 68.1692 24.5074 94.4983 16.0886C95.5715 15.7459 96.6667 16.5484 96.6667 17.6768V71.9541C96.6667 73.3899 95.7452 74.6628 94.3735 75.1218C59.0404 86.947 44.014 59.7936 5.64208 75.4203C4.54042 75.8686 3.33333 75.0759 3.33333 73.8826V20.8245C3.33333 18.7955 4.54917 16.9801 6.43104 16.1995C11.6525 14.0336 16.5758 12.6193 21.4821 11.8759C21.6985 11.8432 21.9063 11.7681 22.0937 11.655C22.2811 11.5419 22.4444 11.393 22.5742 11.2168C22.7041 11.0406 22.798 10.8405 22.8505 10.6281C22.903 10.4156 22.9132 10.1948 22.8804 9.97843C22.7425 9.06822 21.8908 8.44197 20.9829 8.5803C15.806 9.36489 10.6283 10.8499 5.15375 13.1205C2.02312 14.4193 0 17.4432 0 20.8245V73.8824C0 77.4347 3.60562 79.8486 6.89937 78.5074C44.0071 63.3957 58.8413 90.5288 95.4315 78.2826C98.1642 77.3682 100 74.8249 100 71.9541V17.6768C100 14.3088 96.7254 11.8766 93.4831 12.9136ZM94.3729 85.5386C94.2383 85.5836 94.104 85.6282 93.9698 85.6722C93.5497 85.8098 93.2016 86.1087 93.0019 86.5031C92.8022 86.8975 92.7673 87.355 92.905 87.7751C93.0427 88.1952 93.3416 88.5433 93.7359 88.743C94.1303 88.9427 94.5879 88.9776 95.0079 88.8399C95.149 88.7936 95.2902 88.7468 95.4321 88.6993C95.8512 88.5588 96.1973 88.2576 96.3944 87.862C96.5914 87.4663 96.6233 87.0086 96.4829 86.5895C96.1902 85.7166 95.2452 85.2459 94.3729 85.5386Z" fill="url(#paint0_linear_101_227)"/>
<path d="M85.7053 87.7782C56.4924 93.0242 40.6618 71.5753 5.64157 85.8369C5.2322 86.0036 4.90583 86.3261 4.73423 86.7335C4.56264 87.1408 4.55988 87.5996 4.72657 88.009C4.80907 88.2118 4.93071 88.3963 5.08455 88.552C5.23838 88.7077 5.4214 88.8316 5.62313 88.9166C5.82486 89.0016 6.04136 89.046 6.26026 89.0472C6.47915 89.0485 6.69615 89.0066 6.89886 88.924C40.9301 75.0653 55.7455 96.5451 86.2945 91.059C86.7296 90.9809 87.1158 90.7331 87.3682 90.3702C87.6206 90.0074 87.7185 89.5591 87.6403 89.124C87.6018 88.9085 87.5212 88.7027 87.4031 88.5184C87.2849 88.3341 87.1316 88.1749 86.9519 88.0499C86.7722 87.9249 86.5696 87.8365 86.3557 87.7899C86.1418 87.7433 85.9208 87.7393 85.7053 87.7782ZM77.627 69.0444C77.188 69.0802 76.7811 69.2882 76.4951 69.6231C76.209 69.9579 76.0672 70.3924 76.1004 70.8315C76.1337 71.2707 76.3394 71.6788 76.6727 71.9667C77.0059 72.2546 77.4396 72.399 77.8789 72.3682C81.8793 72.0651 85.8657 71.2996 90.0657 70.0278C90.4081 69.9241 90.7081 69.7131 90.9212 69.4258C91.1344 69.1385 91.2495 68.7903 91.2495 68.4326V24.5401C91.2495 23.4238 90.1707 22.6211 89.0999 22.9448C84.2966 24.3992 79.7605 25.1623 75.2322 25.2773C75.0134 25.2829 74.7978 25.3315 74.5978 25.4204C74.3978 25.5093 74.2172 25.6367 74.0665 25.7953C73.9157 25.954 73.7976 26.1408 73.719 26.3451C73.6405 26.5493 73.6029 26.7671 73.6084 26.9859C73.6318 27.9061 74.3943 28.6276 75.3168 28.6096C79.4634 28.5042 83.6055 27.893 87.9164 26.7467V67.1834C84.3843 68.1782 81.0066 68.7884 77.627 69.0444ZM69.4278 72.3019C70.3582 72.3853 71.1551 71.6949 71.2357 70.7894C71.3114 69.9401 70.7349 69.0715 69.6516 68.9751C69.4335 68.9555 69.2138 68.9792 69.0049 69.0446C68.796 69.1101 68.602 69.2161 68.4341 69.3566C68.2662 69.497 68.1276 69.6692 68.0263 69.8633C67.925 70.0574 67.8629 70.2695 67.8437 70.4876C67.768 71.3369 68.3445 72.2048 69.4278 72.3019ZM34.4799 20.6815C34.6979 20.7012 34.9177 20.6776 35.1266 20.6123C35.3355 20.5469 35.5295 20.441 35.6975 20.3006C35.8654 20.1602 36.004 19.988 36.1054 19.794C36.2068 19.6 36.2689 19.3879 36.2882 19.1698C36.3276 18.7296 36.1904 18.2917 35.9069 17.9526C35.6234 17.6135 35.2168 17.4009 34.7766 17.3615C26.5734 16.6286 18.6491 17.804 9.83844 21.0611C9.51891 21.1791 9.24322 21.3923 9.04852 21.6718C8.85382 21.9513 8.74945 22.2838 8.74948 22.6244V66.5171C8.74948 67.6765 9.90615 68.4821 10.9941 68.0805C17.2878 65.7538 23.1512 64.5498 28.9197 64.3998C29.3616 64.3883 29.7807 64.2018 30.0851 63.8812C30.3894 63.5607 30.5539 63.1323 30.5424 62.6905C30.5187 61.7703 29.7437 61.0465 28.833 61.0678C23.3901 61.2092 17.8891 62.2244 12.0828 64.1638V23.7946C19.9782 21.0142 27.1245 20.0244 34.4799 20.6815Z" fill="url(#paint1_linear_101_227)"/>
<path d="M26.5777 39.2622C24.536 39.3684 22.5015 39.584 20.4829 39.908C20.0519 39.984 19.6681 40.2265 19.4143 40.583C19.1606 40.9395 19.0572 41.3816 19.1265 41.8137C19.1959 42.2458 19.4324 42.6333 19.7849 42.8925C20.1375 43.1518 20.5779 43.2619 21.011 43.1993C22.9114 42.894 24.8268 42.691 26.7489 42.5912C27.1903 42.5684 27.6046 42.3713 27.9007 42.0431C28.1968 41.7149 28.3504 41.2826 28.3277 40.8412C28.2806 39.9218 27.4941 39.2128 26.5777 39.2622ZM71.6489 48.4847C71.6379 48.7033 71.67 48.9219 71.7435 49.1281C71.817 49.3343 71.9303 49.524 72.0771 49.6863C72.2239 49.8487 72.4012 49.9806 72.5989 50.0744C72.7967 50.1682 73.011 50.2222 73.2296 50.2332C75.3027 50.3378 77.3181 50.3284 79.2283 50.2249C79.4469 50.2131 79.661 50.1583 79.8584 50.0638C80.0557 49.9692 80.2326 49.8367 80.3788 49.6737C80.5249 49.5108 80.6376 49.3207 80.7103 49.1143C80.783 48.9078 80.8143 48.6891 80.8025 48.4705C80.7529 47.5516 79.9635 46.8482 79.0481 46.8966C77.166 46.9972 75.28 46.9998 73.3977 46.9043C73.1791 46.8932 72.9605 46.9253 72.7543 46.9988C72.5481 47.0722 72.3584 47.1855 72.196 47.3323C72.0336 47.4791 71.9017 47.6564 71.8078 47.8541C71.714 48.0518 71.66 48.2661 71.6489 48.4847ZM52.9527 48.2418C58.3519 48.2418 62.7444 43.8493 62.7444 38.4501C62.7444 33.0509 58.3519 28.6584 52.9527 28.6584H42.9158C42.4738 28.6584 42.0499 28.834 41.7373 29.1466C41.4247 29.4592 41.2491 29.8831 41.2491 30.3251V53.2418H39.1658C38.7238 53.2418 38.2999 53.4174 37.9873 53.7299C37.6747 54.0425 37.4991 54.4664 37.4991 54.9085C37.4991 55.3505 37.6747 55.7744 37.9873 56.087C38.2999 56.3995 38.7238 56.5751 39.1658 56.5751H41.2491V61.1585C41.2491 61.6005 41.4247 62.0244 41.7373 62.337C42.0499 62.6495 42.4738 62.8251 42.9158 62.8251C43.3578 62.8251 43.7818 62.6495 44.0943 62.337C44.4069 62.0244 44.5825 61.6005 44.5825 61.1585V56.5751H52.0825C52.5245 56.5751 52.9484 56.3995 53.261 56.087C53.5735 55.7744 53.7491 55.3505 53.7491 54.9085C53.7491 54.4664 53.5735 54.0425 53.261 53.7299C52.9484 53.4174 52.5245 53.2418 52.0825 53.2418H44.5825V48.2418H52.9527ZM44.5825 31.9918H52.9527C56.5139 31.9918 59.411 34.8891 59.411 38.4501C59.411 42.0112 56.5139 44.9084 52.9527 44.9084H44.5825V31.9918Z" fill="url(#paint2_linear_101_227)"/>
</g>
<defs>
<linearGradient id="paint0_linear_101_227" x1="0" y1="48.4727" x2="100" y2="48.4727" gradientUnits="userSpaceOnUse">
<stop stop-color="#5E80FD"/>
<stop offset="1" stop-color="#FB3B3B"/>
</linearGradient>
<linearGradient id="paint1_linear_101_227" x1="4.60352" y1="54.5643" x2="91.2495" y2="54.5643" gradientUnits="userSpaceOnUse">
<stop stop-color="#5E80FD"/>
<stop offset="1" stop-color="#FB3B3B"/>
</linearGradient>
<linearGradient id="paint2_linear_101_227" x1="19.1055" y1="45.7418" x2="80.8049" y2="45.7418" gradientUnits="userSpaceOnUse">
<stop stop-color="#5E80FD"/>
<stop offset="1" stop-color="#FB3B3B"/>
</linearGradient>
<clipPath id="clip0_101_227">
<rect width="100" height="100" fill="white"/>
</clipPath>
</defs>
</svg>
