<svg width="100" height="100" viewBox="0 0 100 100" fill="none" xmlns="http://www.w3.org/2000/svg">
<g opacity="0.5">
<path d="M50.0007 74.375C46.4394 74.375 43.5423 77.2723 43.5423 80.8333C43.5423 84.3944 46.4394 87.2917 50.0007 87.2917C53.5619 87.2917 56.459 84.3944 56.459 80.8333C56.459 77.2723 53.5619 74.375 50.0007 74.375ZM50.0007 83.9583C48.2775 83.9583 46.8757 82.5564 46.8757 80.8333C46.8757 79.1102 48.2775 77.7083 50.0007 77.7083C51.7238 77.7083 53.1257 79.1102 53.1257 80.8333C53.1257 82.5564 51.7238 83.9583 50.0007 83.9583ZM90.6257 96.6667H83.7507V88.234C83.7507 82.9112 81.2423 77.9446 76.995 74.7598L77.49 66.9642C77.6825 63.9412 75.2375 61.4583 72.2473 61.4583H43.1571C35.8996 58.6469 31.0423 51.5796 31.0423 43.776V30C31.0423 29.558 30.8667 29.134 30.5542 28.8215C30.2416 28.5089 29.8177 28.3333 29.3757 28.3333H25.834V22.3958C25.834 11.8848 34.3854 3.33333 44.8965 3.33333H55.3132C65.8242 3.33333 74.3757 11.8848 74.3757 22.3958V28.3333C70.7019 28.3333 70.614 28.3246 70.4352 28.345C68.9692 28.5138 67.529 28.2838 66.2765 27.5302C63.1411 25.644 63.1254 21.5104 63.1257 21.4692C63.1344 20.1148 61.6023 19.3148 60.4961 20.0981C53.6454 24.9475 45.6098 28.2508 36.8642 29.4752C36.4288 29.5392 36.0364 29.7728 35.7726 30.125C35.5089 30.4773 35.3951 30.9195 35.4561 31.3553C35.5171 31.7911 35.748 32.1851 36.0984 32.4513C36.4488 32.7175 36.8903 32.8343 37.3265 32.7762C45.4753 31.6382 53.2812 28.7499 60.2082 24.3098C61.4382 28.9267 64.8911 31.484 68.959 31.7148C68.959 44.9033 69.0246 44.7598 68.7511 46.5954C68.6107 47.5356 69.2765 48.5417 70.6257 48.5417H74.1673V51.4583C74.1673 53.2962 72.6719 54.7917 70.834 54.7917H62.084C61.642 54.7917 61.218 54.9673 60.9055 55.2798C60.5929 55.5924 60.4173 56.0163 60.4173 56.4583C60.4173 56.9004 60.5929 57.3243 60.9055 57.6368C61.218 57.9494 61.642 58.125 62.084 58.125H70.834C74.51 58.125 77.5007 55.1344 77.5007 51.4583V48.1358C80.0511 47.1994 81.8757 44.7463 81.8757 41.875V35C81.8757 32.2079 80.1494 29.8127 77.709 28.8215V22.3958C77.709 10.0467 67.6621 0 55.3132 0H44.8965C32.5475 0 22.5007 10.0467 22.5007 22.3958V28.7392C19.9502 29.6756 18.1257 32.1287 18.1257 35V41.875C18.1257 44.7463 19.9502 47.1992 22.5007 48.1358C22.5007 69.3238 22.4592 67.8637 22.5927 68.2508L24.1961 93.494C24.2675 94.6193 24.6167 95.7094 25.2125 96.6667H19.584V88.5417C19.584 88.0996 19.4084 87.6757 19.0958 87.3632C18.7833 87.0506 18.3593 86.875 17.9173 86.875C17.4753 86.875 17.0514 87.0506 16.7388 87.3632C16.4262 87.6757 16.2507 88.0996 16.2507 88.5417V96.6667H9.37565C8.93362 96.6667 8.5097 96.8423 8.19714 97.1548C7.88458 97.4674 7.70898 97.8913 7.70898 98.3333C7.70898 98.7754 7.88458 99.1993 8.19714 99.5118C8.5097 99.8244 8.93362 100 9.37565 100H90.6257C91.0677 100 91.4916 99.8244 91.8042 99.5118C92.1167 99.1993 92.2923 98.7754 92.2923 98.3333C92.2923 97.8913 92.1167 97.4674 91.8042 97.1548C91.4916 96.8423 91.0677 96.6667 90.6257 96.6667ZM78.5423 41.875C78.5423 43.7129 77.0469 45.2083 75.209 45.2083H72.2436C72.3163 44.0658 72.2923 45.0521 72.2923 31.6667H75.209C77.0469 31.6667 78.5423 33.1621 78.5423 35V41.875ZM80.4173 88.234V96.6667H74.7888C75.3846 95.7094 75.7338 94.6193 75.8052 93.494L76.7273 78.9727C79.0748 81.4565 80.4173 84.7504 80.4173 88.234ZM36.4359 61.4583C26.9857 61.4583 27.0657 61.3419 25.834 61.8198V48.5417H28.2321C29.3665 53.679 32.295 58.2652 36.4359 61.4583ZM21.459 41.875V35C21.459 33.1621 22.9544 31.6667 24.7923 31.6667H27.709C27.709 45.109 27.6861 44.0912 27.7586 45.2083H24.7923C22.9544 45.2083 21.459 43.7129 21.459 41.875ZM31.2288 96.6667C29.2713 96.6667 27.6434 95.1802 27.5229 93.2827L25.8377 66.7529C25.7694 65.6769 26.6611 64.7917 27.754 64.7917H72.2473C73.3438 64.7917 74.2319 65.6798 74.1634 66.7529L72.4784 93.2827C72.3577 95.1802 70.73 96.6667 68.7725 96.6667H31.2288Z" fill="url(#paint0_linear_101_298)"/>
</g>
<defs>
<linearGradient id="paint0_linear_101_298" x1="7.70898" y1="50" x2="92.2923" y2="50" gradientUnits="userSpaceOnUse">
<stop stop-color="#5E80FD"/>
<stop offset="1" stop-color="#FB3B3B"/>
</linearGradient>
</defs>
</svg>
