<svg width="60" height="60" viewBox="0 0 60 60" fill="none" xmlns="http://www.w3.org/2000/svg">
<g opacity="0.5" clip-path="url(#clip0_101_203)">
<path d="M58.999 26.6249H34C33.8153 26.6248 33.6343 26.676 33.4769 26.7725C33.3196 26.8691 33.192 27.0073 33.1084 27.172L30.0001 33.2914L26.8919 27.172C26.8083 27.0073 26.6807 26.8691 26.5233 26.7725C26.366 26.676 26.1849 26.6248 26.0003 26.6249H1.00122C0.257998 26.6249 -0.228858 27.4112 0.109629 28.0777L1.79769 31.4011C1.9178 31.6375 2.12692 31.8166 2.37905 31.8989C2.63118 31.9811 2.90568 31.9599 3.14214 31.8398C3.3786 31.7197 3.55767 31.5106 3.63995 31.2584C3.72223 31.0063 3.70098 30.7318 3.58087 30.4953L2.63066 28.6248H25.3867L28.3707 34.4996H5.00107C4.73586 34.4996 4.48152 34.6049 4.29399 34.7924C4.10646 34.98 4.00111 35.2343 4.00111 35.4995V56.9987C4.00111 58.6528 5.34693 59.9986 7.001 59.9986H52.9993C54.6533 59.9986 55.9992 58.6528 55.9992 56.9987V35.739L59.8906 28.0777C60.228 27.4133 59.7445 26.6249 58.999 26.6249ZM54.3855 34.4996H35.7942C35.529 34.4996 35.2746 34.6049 35.0871 34.7924C34.8996 34.98 34.7942 35.2343 34.7942 35.4995C34.7942 35.7647 34.8996 36.0191 35.0871 36.2066C35.2746 36.3941 35.529 36.4995 35.7942 36.4995H53.9992V56.9987C53.9992 57.5501 53.5506 57.9987 52.9993 57.9987H7.001C6.44964 57.9987 6.00103 57.5501 6.00103 56.9987V36.4995H29.0002V53.769C29.0002 54.0342 29.1055 54.2885 29.2931 54.476C29.4806 54.6636 29.7349 54.7689 30.0001 54.7689C30.2653 54.7689 30.5197 54.6636 30.7072 54.476C30.8947 54.2885 31.0001 54.0342 31.0001 53.769V35.739L34.6136 28.6248H57.3696L54.3855 34.4996ZM39.2478 22.617C39.378 22.6337 39.5103 22.6245 39.637 22.5901C39.7638 22.5556 39.8825 22.4966 39.9863 22.4162C40.0902 22.3359 40.1773 22.2359 40.2425 22.122C40.3078 22.008 40.35 21.8823 40.3666 21.752C40.976 16.989 44.0637 12.979 48.5006 11.1769C48.7463 11.0771 48.9423 10.8838 49.0455 10.6395C49.1487 10.3952 49.1506 10.1199 49.0508 9.87423C49.0014 9.75255 48.9285 9.64179 48.8363 9.54827C48.7441 9.45476 48.6344 9.38033 48.5134 9.32923C48.3925 9.27814 48.2626 9.25137 48.1313 9.25048C48 9.24958 47.8698 9.27456 47.7481 9.324C42.6489 11.3949 39.0847 16.0118 38.3827 21.498C38.3491 21.7611 38.4214 22.0268 38.5836 22.2366C38.7458 22.4464 38.9847 22.5833 39.2478 22.617ZM13.786 12.558C16.7533 14.7248 18.5099 17.9311 18.6261 21.5323C18.6438 22.084 19.1063 22.5179 19.6578 22.4995C19.789 22.4953 19.9182 22.4652 20.0378 22.4111C20.1574 22.357 20.2652 22.2798 20.3551 22.184C20.4449 22.0882 20.5149 21.9756 20.5613 21.8527C20.6076 21.7299 20.6292 21.5991 20.625 21.4678C20.4856 17.1516 18.3436 13.4097 14.9654 10.9428C14.7513 10.7864 14.4837 10.7215 14.2217 10.7624C13.9596 10.8032 13.7245 10.9465 13.5681 11.1607C13.4117 11.3749 13.3468 11.6424 13.3877 11.9045C13.4285 12.1665 13.5718 12.4016 13.786 12.558ZM36.5504 7.73219C36.7701 7.73219 36.8642 7.67532 37.1687 7.58145C37.2943 7.54286 37.411 7.47992 37.5121 7.39623C37.6133 7.31254 37.6971 7.20974 37.7585 7.09369C37.82 6.97764 37.858 6.85062 37.8703 6.71988C37.8827 6.58915 37.8692 6.45726 37.8306 6.33174C37.6682 5.80389 37.1084 5.5074 36.5809 5.66989C36.4604 5.7069 36.3406 5.74616 36.2215 5.78764C35.9982 5.86522 35.8096 6.01942 35.6892 6.22287C35.5687 6.42632 35.5243 6.66586 35.5637 6.89897C35.6031 7.13208 35.7239 7.34369 35.9045 7.49622C36.0851 7.64876 36.314 7.73236 36.5504 7.73219ZM29.0014 16.4244C29.0144 16.6893 29.1321 16.9381 29.3286 17.1162C29.5252 17.2943 29.7844 17.3871 30.0493 17.3741C30.3141 17.3611 30.563 17.2434 30.7411 17.0469C30.9192 16.8503 31.012 16.5911 30.999 16.3262C30.914 14.5971 31.3513 12.8451 32.2305 11.3936C32.2986 11.2812 32.3438 11.1566 32.3637 11.0268C32.3836 10.897 32.3777 10.7645 32.3463 10.637C32.315 10.5095 32.2589 10.3894 32.1811 10.2835C32.1034 10.1777 32.0055 10.0882 31.8932 10.0202C31.4211 9.73399 30.806 9.88523 30.52 10.3575C29.4205 12.1725 28.8955 14.2703 29.0014 16.4244ZM52.8743 21.1251H53.9992V22.25C53.9992 22.5152 54.1046 22.7696 54.2921 22.9571C54.4796 23.1446 54.734 23.25 54.9992 23.25C55.2644 23.25 55.5187 23.1446 55.7063 22.9571C55.8938 22.7696 55.9992 22.5152 55.9992 22.25V21.1251H57.1241C57.3893 21.1251 57.6437 21.0197 57.8312 20.8322C58.0187 20.6446 58.1241 20.3903 58.1241 20.1251C58.1241 19.8599 58.0187 19.6055 57.8312 19.418C57.6437 19.2305 57.3893 19.1251 57.1241 19.1251H55.9992V18.0002C55.9992 17.735 55.8938 17.4806 55.7063 17.2931C55.5187 17.1056 55.2644 17.0002 54.9992 17.0002C54.734 17.0002 54.4796 17.1056 54.2921 17.2931C54.1046 17.4806 53.9992 17.735 53.9992 18.0002V19.1251H52.8743C52.6091 19.1251 52.3547 19.2305 52.1672 19.418C51.9797 19.6055 51.8743 19.8599 51.8743 20.1251C51.8743 20.3903 51.9797 20.6446 52.1672 20.8322C52.3547 21.0197 52.6091 21.1251 52.8743 21.1251ZM25.2503 4.1257H26.3753V5.25066C26.3753 5.51586 26.4806 5.77021 26.6681 5.95774C26.8557 6.14527 27.11 6.25062 27.3752 6.25062C27.6404 6.25062 27.8948 6.14527 28.0823 5.95774C28.2698 5.77021 28.3752 5.51586 28.3752 5.25066V4.1257H29.5001C29.7654 4.1257 30.0197 4.02035 30.2072 3.83282C30.3948 3.64529 30.5001 3.39094 30.5001 3.12574C30.5001 2.86053 30.3948 2.60619 30.2072 2.41866C30.0197 2.23113 29.7654 2.12577 29.5001 2.12577H28.3752V1.00082C28.3752 0.73561 28.2698 0.481266 28.0823 0.293737C27.8948 0.106207 27.6404 0.000854492 27.3752 0.000854492C27.11 0.000854492 26.8557 0.106207 26.6681 0.293737C26.4806 0.481266 26.3753 0.73561 26.3753 1.00082V2.12577H25.2503C24.9851 2.12577 24.7308 2.23113 24.5432 2.41866C24.3557 2.60619 24.2503 2.86053 24.2503 3.12574C24.2503 3.39094 24.3557 3.64529 24.5432 3.83282C24.7308 4.02035 24.9851 4.1257 25.2503 4.1257ZM2.87615 6.25062H4.00111V7.37558C4.00111 7.64078 4.10646 7.89513 4.29399 8.08266C4.48152 8.27019 4.73586 8.37554 5.00107 8.37554C5.26628 8.37554 5.52062 8.27019 5.70815 8.08266C5.89568 7.89513 6.00103 7.64078 6.00103 7.37558V6.25062H7.12599C7.3912 6.25062 7.64554 6.14527 7.83307 5.95774C8.0206 5.77021 8.12595 5.51586 8.12595 5.25066C8.12595 4.98545 8.0206 4.73111 7.83307 4.54358C7.64554 4.35605 7.3912 4.2507 7.12599 4.2507H6.00103V3.12574C6.00103 2.86053 5.89568 2.60619 5.70815 2.41866C5.52062 2.23113 5.26628 2.12577 5.00107 2.12577C4.73586 2.12577 4.48152 2.23113 4.29399 2.41866C4.10646 2.60619 4.00111 2.86053 4.00111 3.12574V4.2507H2.87615C2.61094 4.2507 2.3566 4.35605 2.16907 4.54358C1.98154 4.73111 1.87619 4.98545 1.87619 5.25066C1.87619 5.51586 1.98154 5.77021 2.16907 5.95774C2.3566 6.14527 2.61094 6.25062 2.87615 6.25062ZM7.04124 17.7904C6.94838 17.8833 6.87472 17.9935 6.82447 18.1149C6.77421 18.2362 6.74834 18.3662 6.74834 18.4975C6.74834 18.6289 6.77421 18.7589 6.82447 18.8802C6.87472 19.0015 6.94838 19.1118 7.04124 19.2046L7.83659 20L7.04124 20.7953C6.85371 20.9829 6.74835 21.2372 6.74835 21.5024C6.74835 21.7676 6.85371 22.022 7.04124 22.2095C7.22878 22.3971 7.48313 22.5024 7.74834 22.5024C8.01356 22.5024 8.26791 22.3971 8.45544 22.2095L9.25079 21.4142L10.0461 22.2095C10.139 22.3024 10.2492 22.376 10.3706 22.4263C10.4919 22.4765 10.6219 22.5024 10.7532 22.5024C10.8846 22.5024 11.0146 22.4765 11.1359 22.4263C11.2572 22.376 11.3675 22.3024 11.4603 22.2095C11.5532 22.1167 11.6268 22.0064 11.6771 21.8851C11.7274 21.7638 11.7532 21.6337 11.7532 21.5024C11.7532 21.3711 11.7274 21.2411 11.6771 21.1197C11.6268 20.9984 11.5532 20.8882 11.4603 20.7953L10.665 20L11.4603 19.2046C11.6479 19.0171 11.7532 18.7628 11.7532 18.4975C11.7532 18.2323 11.6479 17.978 11.4603 17.7904C11.2728 17.6029 11.0184 17.4975 10.7532 17.4975C10.488 17.4975 10.2337 17.6029 10.0461 17.7904L9.25079 18.5858L8.45544 17.7904C8.26786 17.603 8.01353 17.4977 7.74834 17.4977C7.48316 17.4977 7.22882 17.603 7.04124 17.7904ZM47.4147 5.3354C47.6023 5.52288 47.8566 5.6282 48.1218 5.6282C48.387 5.6282 48.6414 5.52288 48.8289 5.3354L49.6243 4.54006L50.4196 5.3354C50.6072 5.52294 50.8615 5.62829 51.1267 5.62829C51.3919 5.62829 51.6463 5.52294 51.8338 5.3354C52.0213 5.14787 52.1267 4.89352 52.1267 4.62831C52.1267 4.36309 52.0213 4.10874 51.8338 3.92121L51.0385 3.12586L51.8338 2.33052C52.0213 2.14298 52.1267 1.88863 52.1267 1.62342C52.1267 1.35821 52.0213 1.10385 51.8338 0.91632C51.6463 0.728786 51.3919 0.62343 51.1267 0.62343C50.8615 0.62343 50.6072 0.728786 50.4196 0.91632L49.6243 1.71167L48.8289 0.91632C48.6414 0.728786 48.387 0.62343 48.1218 0.62343C47.8566 0.62343 47.6023 0.728786 47.4147 0.91632C47.2272 1.10385 47.1218 1.35821 47.1218 1.62342C47.1218 1.88863 47.2272 2.14298 47.4147 2.33052L48.2101 3.12586L47.4147 3.92121C47.3219 4.01406 47.2482 4.1243 47.1979 4.24563C47.1477 4.36695 47.1218 4.49698 47.1218 4.62831C47.1218 4.75963 47.1477 4.88966 47.1979 5.01099C47.2482 5.13231 47.3219 5.24255 47.4147 5.3354ZM15.0768 5.63314C15.2916 6.1485 15.8799 6.38449 16.383 6.17437C16.9007 5.95863 17.133 5.36928 16.9242 4.86817C16.646 4.20182 15.7897 4.0467 15.2931 4.54318C14.9898 4.85467 14.9307 5.28128 15.0768 5.63314ZM20.0766 9.383C20.2935 9.90348 20.8847 10.1322 21.3828 9.92423C21.9058 9.70637 22.1309 9.11439 21.9241 8.61803C21.6766 8.02543 20.9576 7.82431 20.4454 8.1693C20.0516 8.42916 19.8935 8.94202 20.0766 9.383ZM54.1942 12.3316C54.6535 12.6409 55.2813 12.5096 55.5804 12.0554C55.891 11.5953 55.7567 10.9672 55.3042 10.6692C54.7908 10.3227 54.0722 10.5268 53.8255 11.1179C53.641 11.5628 53.8029 12.0733 54.1942 12.3316ZM31.5426 20.7926C30.9791 21.3561 31.2728 22.3271 32.0551 22.48C32.8057 22.6423 33.4888 21.8734 33.1738 21.1176C32.8953 20.4507 32.0389 20.2962 31.5426 20.7926Z" fill="url(#paint0_linear_101_203)"/>
</g>
<defs>
<linearGradient id="paint0_linear_101_203" x1="0" y1="29.9997" x2="60.0001" y2="29.9997" gradientUnits="userSpaceOnUse">
<stop stop-color="#5E80FD"/>
<stop offset="1" stop-color="#FB3B3B"/>
</linearGradient>
<clipPath id="clip0_101_203">
<rect width="60" height="60" fill="white"/>
</clipPath>
</defs>
</svg>
